{
  "accessors": [
    {
      "bufferView": 2,
      "componentType": 5126,
      "count": 6751,
      "max": [
        2.158294916152954,
        3.0006608963012695,
        2.7225706577301025
      ],
      "min": [
        -2.1681456565856934,
        -0.9055062532424927,
        -3.581615924835205
      ],
      "type": "VEC3"
    },
    {
      "bufferView": 2,
      "byteOffset": 81012,
      "componentType": 5126,
      "count": 6751,
      "max": [
        1.0,
        1.0,
        1.0
      ],
      "min": [
        -1.0,
        -1.0,
        -1.0
      ],
      "type": "VEC3"
    },
    {
      "bufferView": 1,
      "componentType": 5126,
      "count": 6751,
      "max": [
        0.998432993888855,
        0.9990109801292419
      ],
      "min": [
        0.0009892720263451338,
        0.0009892720263451338
      ],
      "type": "VEC2"
    },
    {
      "bufferView": 0,
      "componentType": 5125,
      "count": 15945,
      "type": "SCALAR"
    },
    {
      "bufferView": 2,
      "byteOffset": 162024,
      "componentType": 5126,
      "count": 38,
      "max": [
        1.1341392993927002,
        0.6132336258888245,
        1.3838493824005127
      ],
      "min": [
        -1.1392484903335571,
        -0.21332597732543945,
        1.3765305280685425
      ],
      "type": "VEC3"
    },
    {
      "bufferView": 2,
      "byteOffset": 162480,
      "componentType": 5126,
      "count": 38,
      "max": [
        0.0130621287971735,
        0.013031555339694023,
        -0.9998775720596313
      ],
      "min": [
        -0.0130621287971735,
        -0.0005798612837679684,
        -0.9999982118606567
      ],
      "type": "VEC3"
    },
    {
      "bufferView": 1,
      "byteOffset": 54008,
      "componentType": 5126,
      "count": 38,
      "max": [
        0.723796010017395,
        0.9751179814338684
      ],
      "min": [
        0.4885239899158478,
        0.9213789701461792
      ],
      "type": "VEC2"
    },
    {
      "bufferView": 0,
      "byteOffset": 63780,
      "componentType": 5125,
      "count": 108,
      "type": "SCALAR"
    },
    {
      "bufferView": 2,
      "byteOffset": 162936,
      "componentType": 5126,
      "count": 202,
      "max": [
        2.1255085468292236,
        1.2466025352478027,
        3.0083131790161133
      ],
      "min": [
        -2.130617618560791,
        -0.8631736040115356,
        3.0083131790161133
      ],
      "type": "VEC3"
    },
    {
      "bufferView": 2,
      "byteOffset": 165360,
      "componentType": 5126,
      "count": 202,
      "max": [
        4.960391379427165e-06,
        0.0,
        1.0
      ],
      "min": [
        -3.849884251394542e-06,
        0.0,
        1.0
      ],
      "type": "VEC3"
    },
    {
      "bufferView": 1,
      "byteOffset": 54312,
      "componentType": 5126,
      "count": 202,
      "max": [
        0.12788799405097961,
        0.24371899664402008
      ],
      "min": [
        0.005450290162116289,
        0.0040862299501895905
      ],
      "type": "VEC2"
    },
    {
      "bufferView": 0,
      "byteOffset": 64212,
      "componentType": 5125,
      "count": 318,
      "type": "SCALAR"
    },
    {
      "bufferView": 2,
      "byteOffset": 167784,
      "componentType": 5126,
      "count": 5,
      "max": [
        1.8966701030731201,
        1.2665109634399414,
        3.0083131790161133
      ],
      "min": [
        -0.0025548143312335014,
        1.2399406433105469,
        3.0083131790161133
      ],
      "type": "VEC3"
    },
    {
      "bufferView": 2,
      "byteOffset": 167844,
      "componentType": 5126,
      "count": 5,
      "max": [
        0.0,
        0.0,
        1.0
      ],
      "min": [
        0.0,
        0.0,
        1.0
      ],
      "type": "VEC3"
    },
    {
      "bufferView": 1,
      "byteOffset": 55928,
      "componentType": 5126,
      "count": 5,
      "max": [
        0.007628730032593012,
        0.2298080027103424
      ],
      "min": [
        0.003995960112661123,
        0.12390299886465073
      ],
      "type": "VEC2"
    },
    {
      "bufferView": 0,
      "byteOffset": 65484,
      "componentType": 5125,
      "count": 9,
      "type": "SCALAR"
    },
    {
      "bufferView": 2,
      "byteOffset": 167904,
      "componentType": 5126,
      "count": 292,
      "max": [
        2.163036823272705,
        1.2886834144592285,
        3.0083131790161133
      ],
      "min": [
        -2.1681456565856934,
        -0.9055062532424927,
        2.7225706577301025
      ],
      "type": "VEC3"
    },
    {
      "bufferView": 2,
      "byteOffset": 171408,
      "componentType": 5126,
      "count": 292,
      "max": [
        0.9991834163665771,
        0.9999935626983643,
        1.0
      ],
      "min": [
        -0.9991834163665771,
        -0.9999902248382568,
        -1.0
      ],
      "type": "VEC3"
    },
    {
      "bufferView": 1,
      "byteOffset": 55968,
      "componentType": 5126,
      "count": 292,
      "max": [
        0.9956160187721252,
        0.7341970205307007
      ],
      "min": [
        0.0009892720263451338,
        0.0009892720263451338
      ],
      "type": "VEC2"
    },
    {
      "bufferView": 0,
      "byteOffset": 65520,
      "componentType": 5125,
      "count": 762,
      "type": "SCALAR"
    }
  ],
  "asset": {
    "extras": {
      "author": "Universal Simulation (https://sketchfab.com/universal-simulation)",
      "license": "CC-BY-4.0 (http://creativecommons.org/licenses/by/4.0/)",
      "source": "https://sketchfab.com/3d-models/vr-headset-simple-fbx-free-31e3f740d10149c8a764cb34b02edf15",
      "title": "VR Headset Simple (FBX Free)"
    },
    "generator": "Sketchfab-12.68.0",
    "version": "2.0"
  },
  "bufferViews": [
    {
      "buffer": 0,
      "byteLength": 68568,
      "name": "floatBufferViews",
      "target": 34963
    },
    {
      "buffer": 0,
      "byteLength": 58304,
      "byteOffset": 68568,
      "byteStride": 8,
      "name": "floatBufferViews",
      "target": 34962
    },
    {
      "buffer": 0,
      "byteLength": 174912,
      "byteOffset": 126872,
      "byteStride": 12,
      "name": "floatBufferViews",
      "target": 34962
    }
  ],
  "buffers": [
    {
      "byteLength": 301784,
      "uri": "scene.bin"
    }
  ],
  "materials": [
    {
      "doubleSided": true,
      "name": "Black",
      "pbrMetallicRoughness": {
        "baseColorFactor": [
          0.0,
          0.0,
          0.0,
          1.0
        ],
        "metallicFactor": 0.0
      }
    },
    {
      "doubleSided": true,
      "name": "White",
      "pbrMetallicRoughness": {
        "metallicFactor": 0.0
      }
    },
    {
      "doubleSided": true,
      "name": "Grey",
      "pbrMetallicRoughness": {
        "baseColorFactor": [
          0.441158,
          0.441158,
          0.441158,
          1.0
        ],
        "metallicFactor": 0.0,
        "roughnessFactor": 0.9013540723
      }
    },
    {
      "doubleSided": true,
      "name": "Blue",
      "pbrMetallicRoughness": {
        "baseColorFactor": [
          0.0,
          0.343776,
          0.8,
          1.0
        ],
        "metallicFactor": 0.0,
        "roughnessFactor": 0.9321065821
      }
    }
  ],
  "meshes": [
    {
      "name": "Body_Black_0",
      "primitives": [
        {
          "attributes": {
            "NORMAL": 1,
            "POSITION": 0,
            "TEXCOORD_0": 2
          },
          "indices": 3,
          "material": 0,
          "mode": 4
        }
      ]
    },
    {
      "name": "Body_White_0",
      "primitives": [
        {
          "attributes": {
            "NORMAL": 5,
            "POSITION": 4,
            "TEXCOORD_0": 6
          },
          "indices": 7,
          "material": 1,
          "mode": 4
        }
      ]
    },
    {
      "name": "Plate_Grey_0",
      "primitives": [
        {
          "attributes": {
            "NORMAL": 9,
            "POSITION": 8,
            "TEXCOORD_0": 10
          },
          "indices": 11,
          "material": 2,
          "mode": 4
        }
      ]
    },
    {
      "name": "Plate_Blue_0",
      "primitives": [
        {
          "attributes": {
            "NORMAL": 13,
            "POSITION": 12,
            "TEXCOORD_0": 14
          },
          "indices": 15,
          "material": 3,
          "mode": 4
        }
      ]
    },
    {
      "name": "Band_Blue_0",
      "primitives": [
        {
          "attributes": {
            "NORMAL": 17,
            "POSITION": 16,
            "TEXCOORD_0": 18
          },
          "indices": 19,
          "material": 3,
          "mode": 4
        }
      ]
    }
  ],
  "nodes": [
    {
      "children": [
        1
      ],
      "matrix": [
        0.2726728320121765,
        0.0,
        0.0,
        0.0,
        0.0,
        6.054553125793316e-17,
        -0.2726728320121765,
        0.0,
        0.0,
        0.2726728320121765,
        6.054553125793316e-17,
        0.0,
        0.0,
        0.0,
        0.0,
        1.0
      ],
      "name": "Sketchfab_model"
    },
    {
      "children": [
        2
      ],
      "matrix": [
        1.0,
        0.0,
        0.0,
        0.0,
        0.0,
        0.0,
        1.0,
        0.0,
        0.0,
        -1.0,
        0.0,
        0.0,
        0.0,
        0.0,
        0.0,
        1.0
      ],
      "name": "3ab6e899671a449b82f5c552b6c4c183.fbx"
    },
    {
      "children": [
        3,
        6,
        9
      ],
      "name": "RootNode"
    },
    {
      "children": [
        4,
        5
      ],
      "matrix": [
        1.3506718873977661,
        0.0,
        0.0,
        0.0,
        0.0,
        1.3506718873977481,
        2.200523890280255e-07,
        0.0,
        0.0,
        -2.200523890280255e-07,
        1.3506718873977481,
        0.0,
        0.0,
        0.0,
        0.0,
        1.0
      ],
      "name": "Body"
    },
    {
      "mesh": 0,
      "name": "Body_Black_0"
    },
    {
      "mesh": 1,
      "name": "Body_White_0"
    },
    {
      "children": [
        7,
        8
      ],
      "matrix": [
        1.3506718873977661,
        0.0,
        0.0,
        0.0,
        0.0,
        1.3506718873977481,
        2.200523890280255e-07,
        0.0,
        0.0,
        -2.200523890280255e-07,
        1.3506718873977481,
        0.0,
        0.0,
        0.0,
        0.0,
        1.0
      ],
      "name": "Plate"
    },
    {
      "mesh": 2,
      "name": "Plate_Grey_0"
    },
    {
      "mesh": 3,
      "name": "Plate_Blue_0"
    },
    {
      "children": [
        10
      ],
      "matrix": [
        1.3506718873977661,
        0.0,
        0.0,
        0.0,
        0.0,
        1.3506718873977481,
        2.200523890280255e-07,
        0.0,
        0.0,
        -2.200523890280255e-07,
        1.3506718873977481,
        0.0,
        0.0,
        0.0,
        0.0,
        1.0
      ],
      "name": "Band"
    },
    {
      "mesh": 4,
      "name": "Band_Blue_0"
    }
  ],
  "scene": 0,
  "scenes": [
    {
      "name": "Sketchfab_Scene",
      "nodes": [
        0
      ]
    }
  ]
}
